<svg width="34" height="34" viewBox="0 0 34 34" fill="none" xmlns="http://www.w3.org/2000/svg">
<path d="M33.2272 0.772705H0.772705V33.2272H33.2272V0.772705Z" fill="url(#paint0_radial_305_662)"/>
<path d="M34 34H0V0H34V34ZM1.54545 32.4545H32.4545V1.54545H1.54545V32.4545Z" fill="#00B5EF"/>
<path d="M10.8182 26.2728H7.72729V7.7273L12.0882 7.72729C15.3149 7.72729 18.2019 10.08 18.5153 13.2914C18.8748 16.9762 15.976 20.0909 12.3637 20.0909H10.8182V26.2728ZM10.8182 17H12.3637C14.0683 17 15.4546 15.6138 15.4546 13.9091C15.4546 12.2044 14.0683 10.8182 12.3637 10.8182H10.8182V17Z" fill="#00B5EF"/>
<path d="M22.0028 26.2376C20.1573 26.0774 18.7945 25.4207 18.627 25.337L20.0095 22.5721C20.0139 22.5747 21.2775 23.1818 22.8053 23.1818C23.4392 23.1818 23.9546 22.6664 23.9546 22.0325C23.9546 21.5375 23.6392 21.0991 23.1691 20.9429L22.4236 20.6946C20.8466 20.1694 19.5854 18.8472 19.3593 17.2005C19.0021 14.5986 21.0245 12.3636 23.5584 12.3636C25.8006 12.3636 27.5453 13.2037 27.7368 13.2994L26.3611 16.0673C26.3495 16.0615 25.0861 15.4546 23.5584 15.4546C22.9246 15.4546 22.4092 15.97 22.4092 16.6038C22.4092 17.0989 22.7246 17.5373 23.1947 17.6935L24.1463 18.0104C26.0153 18.6335 27.2234 20.4627 27.024 22.4626C26.7828 24.8836 24.4267 26.4479 22.0028 26.2376Z" fill="#00B5EF"/>
<path d="M34 34H0V0H34V34Z" fill="url(#paint1_linear_305_662)"/>
<defs>
<radialGradient id="paint0_radial_305_662" cx="0" cy="0" r="1" gradientUnits="userSpaceOnUse" gradientTransform="translate(12.106 7.98483) scale(27.1819)">
<stop stop-color="#193458" stop-opacity="0.98"/>
<stop offset="0.933387" stop-color="#210021"/>
</radialGradient>
<linearGradient id="paint1_linear_305_662" x1="-3.47507" y1="7.45232" x2="37.4751" y2="26.5477" gradientUnits="userSpaceOnUse">
<stop stop-color="white" stop-opacity="0.2"/>
<stop offset="1" stop-color="white" stop-opacity="0"/>
</linearGradient>
</defs>
</svg>
