<svg width="39" height="34" viewBox="0 0 39 34" fill="none" xmlns="http://www.w3.org/2000/svg">
<path fill-rule="evenodd" clip-rule="evenodd" d="M20.2696 3.31121C19.1627 3.11636 18.0224 3.31144 17.0432 3.86318C16.064 4.41492 15.3064 5.28918 14.8996 6.33694C14.4928 7.3847 14.4619 8.54112 14.8123 9.60908C15.1626 10.677 15.8725 11.5905 16.8209 12.1936C17.1828 12.4244 17.4382 12.7893 17.5311 13.2083C17.624 13.6272 17.5468 14.0659 17.3164 14.428L10.9662 24.4066C11.296 25.0385 11.408 25.7617 11.2849 26.4638C11.1618 27.1659 10.8104 27.8078 10.2854 28.2899C9.76028 28.772 9.0908 29.0673 8.38074 29.1301C7.67069 29.193 6.95974 29.0198 6.35817 28.6374C5.75659 28.255 5.298 27.6847 5.05352 27.0152C4.80904 26.3456 4.79233 25.614 5.00599 24.934C5.21964 24.2539 5.65172 23.6633 6.23521 23.2539C6.8187 22.8444 7.52099 22.6389 8.23318 22.6693L13.8029 13.918C12.7981 12.9473 12.0616 11.7332 11.6651 10.3936C11.2685 9.05405 11.2253 7.63465 11.5398 6.27345C11.8542 4.91225 12.5155 3.65559 13.4595 2.62568C14.4034 1.59577 15.5978 0.827655 16.9265 0.396043C18.2552 -0.0355701 19.673 -0.115993 21.0419 0.162596C22.4109 0.441185 23.6845 1.0693 24.7389 1.98587C25.7932 2.90243 26.5924 4.07624 27.0587 5.39314C27.5251 6.71005 27.6427 8.12523 27.4002 9.50105C27.3632 9.71049 27.2853 9.91059 27.171 10.0899C27.0566 10.2693 26.9081 10.4243 26.7339 10.5462C26.5596 10.6682 26.363 10.7546 26.1554 10.8006C25.9477 10.8465 25.7331 10.8511 25.5236 10.8141C25.3142 10.7772 25.1141 10.6993 24.9348 10.5849C24.7554 10.4706 24.6004 10.3221 24.4784 10.1478C24.3565 9.97357 24.2701 9.77701 24.2241 9.56936C24.1782 9.36171 24.1735 9.14704 24.2105 8.9376C24.4341 7.66914 24.1447 6.36382 23.4059 5.30871C22.6672 4.2536 21.538 3.53509 20.2696 3.31121ZM16.1895 8.09405C16.1898 7.60341 16.3017 7.11926 16.5166 6.67818C16.7314 6.2371 17.0438 5.85061 17.4299 5.54792C17.816 5.24522 18.2659 5.03422 18.7455 4.93087C19.2252 4.82751 19.722 4.83449 20.1985 4.95129C20.6751 5.06809 21.1189 5.29165 21.4963 5.60508C21.8738 5.91851 22.1751 6.31362 22.3775 6.76057C22.5799 7.20752 22.6781 7.69462 22.6647 8.18507C22.6513 8.67553 22.5265 9.15653 22.3 9.59172L27.8697 18.343C29.2022 17.8331 30.6457 17.6844 32.0542 17.912C33.4626 18.1395 34.7859 18.7352 35.89 19.6388C36.9941 20.5423 37.8398 21.7216 38.3415 23.0572C38.8432 24.3928 38.983 25.8372 38.7468 27.2442C38.5106 28.6512 37.9067 29.9708 36.9964 31.0693C36.0861 32.1679 34.9016 33.0063 33.563 33.4998C32.2243 33.9932 30.7791 34.1242 29.3735 33.8793C27.968 33.6344 26.6522 33.0225 25.5592 32.1054C25.2405 31.8265 25.0437 31.4338 25.0112 31.0115C24.9786 30.5892 25.1128 30.171 25.385 29.8464C25.6572 29.5219 26.0457 29.317 26.4672 29.2756C26.8887 29.2342 27.3097 29.3596 27.6398 29.6249C28.3275 30.2015 29.1614 30.5763 30.0492 30.7077C30.9369 30.8392 31.8437 30.7221 32.6689 30.3695C33.4941 30.0169 34.2056 29.4427 34.7243 28.7103C35.243 27.978 35.5487 27.1164 35.6074 26.2209C35.6662 25.3254 35.4758 24.4312 35.0572 23.6373C34.6387 22.8435 34.0084 22.1812 33.2363 21.7238C32.4643 21.2664 31.5805 21.0318 30.6833 21.0461C29.786 21.0603 28.9102 21.3229 28.1531 21.8047C27.7908 22.0349 27.352 22.1119 26.933 22.0187C26.514 21.9254 26.1492 21.6697 25.9187 21.3076L19.5669 11.329C19.1304 11.3478 18.6945 11.2781 18.2857 11.124C17.8768 10.9699 17.5033 10.7346 17.1878 10.4324C16.8722 10.1301 16.6211 9.76714 16.4495 9.36528C16.278 8.96342 16.1895 8.531 16.1895 8.09405ZM7.40095 19.2659C7.54744 19.6693 7.52774 20.1144 7.34618 20.5034C7.16462 20.8923 6.83607 21.1932 6.43273 21.34C5.5979 21.6441 4.8625 22.1715 4.30655 22.8646C3.7506 23.5577 3.39541 24.39 3.27964 25.2709C3.16387 26.1518 3.29194 27.0477 3.64993 27.8609C4.00792 28.6741 4.5821 29.3735 5.30999 29.883C6.03788 30.3926 6.89159 30.6927 7.77821 30.7508C8.66482 30.8088 9.55037 30.6225 10.3385 30.2123C11.1266 29.802 11.7871 29.1834 12.248 28.4238C12.709 27.6642 12.9528 26.7927 12.9529 25.9042C12.9529 25.4748 13.1235 25.063 13.4271 24.7594C13.7307 24.4557 14.1426 24.2851 14.572 24.2851H27.9555C28.3119 23.6678 28.8621 23.1853 29.5207 22.9125C30.1793 22.6397 30.9095 22.5919 31.598 22.7764C32.2866 22.9609 32.895 23.3674 33.329 23.9329C33.7629 24.4985 33.9981 25.1914 33.9981 25.9042C33.9981 26.6171 33.7629 27.31 33.329 27.8755C32.895 28.4411 32.2866 28.8476 31.598 29.0321C30.9095 29.2166 30.1793 29.1687 29.5207 28.896C28.8621 28.6232 28.3119 28.1407 27.9555 27.5233H16.0276C15.7452 28.9066 15.1061 30.192 14.1735 31.252C13.2409 32.3119 12.0474 33.1096 10.7113 33.5658C9.37523 34.0219 7.94308 34.1208 6.55701 33.8525C5.17094 33.5842 3.87913 32.958 2.80979 32.0362C1.74045 31.1144 0.930771 29.929 0.461103 28.5976C-0.00856519 27.2662 -0.121889 25.8352 0.13238 24.4464C0.386648 23.0577 0.999667 21.7596 1.9106 20.681C2.82152 19.6024 3.99869 18.7808 5.32526 18.2977C5.72869 18.1506 6.17403 18.1698 6.56329 18.3511C6.95256 18.5324 7.25387 18.8625 7.40095 19.2659Z" fill="#0C66E4"/>
</svg>
