<svg width="43" height="34" viewBox="0 0 43 34" fill="none" xmlns="http://www.w3.org/2000/svg">
<path d="M24.7358 12.8338C24.7358 11.1595 23.5539 10.2352 21.4781 10.2352H17.6597V15.6294H20.8796C23.3645 15.6218 24.7358 14.6217 24.7358 12.8338ZM38.6378 11.8641C37.9181 9.52308 37.812 6.65176 37.8953 4.43198C37.9787 2.12129 36.1756 0 33.7512 0H8.84123C6.40933 0 4.61381 2.12887 4.69714 4.43198C4.7729 6.65176 4.67441 9.52308 3.95469 11.8641C3.22739 14.2126 2.00765 15.6975 0 15.8869V18.0461C2.00007 18.2355 3.22739 19.7204 3.95469 22.069C4.67441 24.41 4.78048 27.2813 4.69714 29.5011C4.61381 31.8118 6.4169 33.9331 8.84123 33.9331H33.7437C36.1756 33.9331 37.9711 31.8042 37.8878 29.5011C37.812 27.2813 37.9105 24.41 38.6302 22.069C39.3575 19.7204 40.5772 18.2355 42.5773 18.0461V15.8869C40.5848 15.6975 39.3575 14.2126 38.6378 11.8641ZM22.2129 25.9934H14.796V7.93969H22.1751C25.4555 7.93969 27.6071 9.71248 27.6071 12.4399C27.6071 14.3566 26.16 16.0688 24.3115 16.3642V16.4627C26.8267 16.7355 28.5162 18.478 28.5162 20.8796C28.5162 24.0691 26.1449 25.9934 22.2129 25.9934ZM21.4553 17.7582H17.6597V23.6978H21.622C24.213 23.6978 25.5843 22.6599 25.5843 20.7053C25.5843 18.7583 24.1751 17.7582 21.4553 17.7582Z" fill="#792CF6"/>
</svg>
