<svg width="84" height="60" viewBox="0 0 84 60" fill="none" xmlns="http://www.w3.org/2000/svg">
<path d="M78.9936 26.1765C79.6942 25.8675 80.2887 25.3597 80.7035 24.7161C81.1183 24.0725 81.3352 23.3213 81.3273 22.5556C81.3193 21.79 81.087 21.0434 80.659 20.4085C80.2309 19.7736 79.626 19.2782 78.9192 18.9837L45.3775 3.70581C44.3578 3.2407 43.2501 3 42.1294 3C41.0086 3 39.9009 3.2407 38.8813 3.70581L5.34343 18.9681C4.64672 19.2732 4.05403 19.7748 3.63784 20.4114C3.22165 21.048 3 21.7921 3 22.5527C3 23.3133 3.22165 24.0575 3.63784 24.6941C4.05403 25.3307 4.64672 25.8323 5.34343 26.1374L38.8813 41.431C39.9009 41.8961 41.0086 42.1368 42.1294 42.1368C43.2501 42.1368 44.3578 41.8961 45.3775 41.431L78.9936 26.1765Z" stroke="#6532BD" stroke-width="4.17429" stroke-linecap="round" stroke-linejoin="round"/>
<path d="M81.2634 22.5684V46.0488" stroke="#6532BD" stroke-width="4.17429" stroke-linecap="round" stroke-linejoin="round"/>
<path d="M18.6489 32.3517V46.0486C18.6489 49.1623 21.1227 52.1484 25.5262 54.3502C29.9296 56.5519 35.9019 57.7888 42.1293 57.7888C48.3567 57.7888 54.329 56.5519 58.7325 54.3502C63.1359 52.1484 65.6097 49.1623 65.6097 46.0486V32.3517" stroke="#6532BD" stroke-width="4.17429" stroke-linecap="round" stroke-linejoin="round"/>
</svg>
