<svg width="50" height="50" viewBox="0 0 50 50" fill="none" xmlns="http://www.w3.org/2000/svg">
<path d="M36.2349 14.0382C37.1035 14.6598 37.92 15.3511 38.6764 16.1053C40.7874 18.2187 42.3951 20.7805 43.3802 23.6005C42.3223 23.0799 41.1615 22.8019 39.9826 22.7867H39.7221C38.9043 21.1093 37.8123 19.58 36.4913 18.2619C36.1983 17.9689 35.8931 17.6841 35.5798 17.4155C36.0509 16.8094 36.3058 16.0632 36.3041 15.2956C36.3052 14.8687 36.2821 14.4421 36.2349 14.0179V14.0382ZM30.2453 25.0247C30.7088 25.1079 31.1352 25.3325 31.466 25.6676C31.9006 26.098 32.1465 26.6835 32.1496 27.2952V32.585C32.1475 33.2016 31.9016 33.7924 31.4655 34.2284C31.0295 34.6644 30.4387 34.9103 29.8221 34.9125H29.7041L29.9035 37.7364C29.9077 37.8282 29.8772 37.9183 29.818 37.9887C29.7568 38.0589 29.6703 38.1021 29.5774 38.109C29.4844 38.1158 29.3925 38.0858 29.3216 38.0253L25.7002 34.823H20.9475L23.2953 32.4344H28.2718C28.7953 32.4323 29.2966 32.2231 29.6663 31.8526C30.0361 31.4821 30.2442 30.9803 30.2453 30.4569C30.2453 28.7845 30.3755 26.6197 30.2453 25.0043V25.0247ZM19.9669 27.8893C19.8525 27.8893 19.7428 27.8438 19.6619 27.763C19.581 27.6821 19.5355 27.5724 19.5355 27.458C19.5355 27.3436 19.581 27.2339 19.6619 27.153C19.7428 27.0721 19.8525 27.0266 19.9669 27.0266H24.158C24.2724 27.0266 24.3821 27.0721 24.463 27.153C24.5439 27.2339 24.5893 27.3436 24.5893 27.458C24.5893 27.5724 24.5439 27.6821 24.463 27.763C24.3821 27.8438 24.2724 27.8893 24.158 27.8893H19.9669ZM19.9669 25.5414C19.8525 25.5414 19.7428 25.496 19.6619 25.4151C19.581 25.3342 19.5355 25.2245 19.5355 25.1101C19.5355 24.9957 19.581 24.886 19.6619 24.8051C19.7428 24.7242 19.8525 24.6788 19.9669 24.6788H25.9077C26.0221 24.6788 26.1318 24.7242 26.2127 24.8051C26.2936 24.886 26.339 24.9957 26.339 25.1101C26.339 25.2245 26.2936 25.3342 26.2127 25.4151C26.1318 25.496 26.0221 25.5414 25.9077 25.5414H19.9669ZM18.795 21.4276H27.0063C27.3225 21.4278 27.6355 21.4905 27.9274 21.612C28.2193 21.7335 28.4843 21.9114 28.7072 22.1356C29.1592 22.5864 29.4139 23.1981 29.4152 23.8365V29.1263C29.4145 29.4418 29.3516 29.754 29.2301 30.0451C29.1086 30.3363 28.9309 30.6006 28.7072 30.8231C28.4839 31.0465 28.2188 31.2237 27.9269 31.3445C27.635 31.4653 27.3222 31.5274 27.0063 31.527H22.9129L19.3158 34.6195C19.2515 34.675 19.1722 34.7102 19.088 34.7208C19.0037 34.7314 18.9182 34.7169 18.8422 34.6791C18.7661 34.6412 18.7029 34.5818 18.6605 34.5083C18.6181 34.4347 18.5983 34.3502 18.6037 34.2655L18.795 31.527C18.4792 31.5302 18.1659 31.4706 17.8732 31.3519C17.5806 31.2332 17.3144 31.0576 17.09 30.8353C16.8663 30.6128 16.6886 30.3485 16.5672 30.0574C16.4457 29.7662 16.3828 29.454 16.382 29.1385V23.8487C16.3811 23.5306 16.4431 23.2154 16.5647 22.9214C16.6862 22.6273 16.8647 22.3603 17.09 22.1356C17.3125 21.9119 17.5768 21.7342 17.868 21.6128C18.1591 21.4913 18.4714 21.4284 18.7868 21.4276H18.795ZM27.0063 22.2943H18.795C18.5924 22.2941 18.3918 22.3339 18.2047 22.4114C18.0175 22.4889 17.8475 22.6026 17.7045 22.746C17.4164 23.036 17.2541 23.4278 17.2528 23.8365V29.1263C17.2528 29.5353 17.4153 29.9275 17.7045 30.2168C17.9937 30.506 18.386 30.6685 18.795 30.6685H19.2833C19.3403 30.6716 19.3961 30.686 19.4476 30.7108C19.499 30.7357 19.545 30.7705 19.5828 30.8133C19.6207 30.8561 19.6497 30.9059 19.6681 30.96C19.6865 31.0141 19.694 31.0713 19.6902 31.1283L19.5315 33.3052L22.4449 30.8027C22.5261 30.7222 22.6358 30.6769 22.7501 30.6766H27.0063C27.2089 30.6766 27.4094 30.6367 27.5965 30.5592C27.7836 30.4817 27.9536 30.3681 28.0968 30.2249C28.24 30.0817 28.3536 29.9117 28.4311 29.7246C28.5086 29.5375 28.5485 29.3369 28.5485 29.1344V23.8446C28.5485 23.6421 28.5086 23.4416 28.4311 23.2545C28.3536 23.0674 28.24 22.8974 28.0968 22.7542C27.9536 22.611 27.7836 22.4974 27.5965 22.4199C27.4094 22.3424 27.2089 22.3025 27.0063 22.3025V22.2943ZM38.7171 35.6571C38.6376 35.576 38.5629 35.4904 38.4933 35.4008C38.3305 35.1729 38.1759 34.9369 38.0253 34.7009L37.2807 33.5168C37.0356 33.2036 36.8859 32.8264 36.8494 32.4304C36.8453 32.2655 36.8913 32.1034 36.9814 31.9653C37.0715 31.8273 37.2014 31.7198 37.3539 31.6572C37.3295 31.2137 37.3092 30.762 37.3092 30.3144C37.3092 30.0459 37.3092 29.7814 37.3092 29.5006C37.3368 29.3331 37.379 29.1684 37.4353 29.0083C37.6444 28.3358 38.0953 27.7647 38.7008 27.4051C38.9153 27.2693 39.1446 27.1588 39.3844 27.0755C39.8198 26.9127 39.6082 26.2617 40.0843 26.2617C41.1992 26.2291 43.0262 27.1813 43.7464 27.9544C44.1993 28.4586 44.4576 29.1079 44.4748 29.7855L44.4056 31.7386C44.5044 31.7622 44.5948 31.8127 44.6666 31.8845C44.7384 31.9564 44.789 32.0467 44.8125 32.1455C44.8581 32.5008 44.7851 32.8613 44.605 33.1709C44.605 33.1709 44.605 33.1709 44.605 33.2035L43.7342 34.587C43.5456 34.9092 43.3405 35.2216 43.1198 35.5228C42.8553 35.8768 42.6356 35.8158 42.8634 36.1535C44.4911 38.3834 49.2559 36.9674 49.2559 41.4148H32.3978C32.3978 36.9714 37.1668 38.3834 38.7903 36.1535C38.9775 35.8768 38.9287 35.8972 38.7171 35.6734V35.6571ZM6.32331 35.6571C6.24309 35.5779 6.1696 35.4922 6.10358 35.4008C5.93675 35.1729 5.78213 34.9369 5.63157 34.7009L4.88287 33.5005C4.64467 33.1855 4.50328 32.808 4.47596 32.4141C4.46829 32.2486 4.51288 32.0848 4.60344 31.9461C4.694 31.8073 4.82592 31.7006 4.98053 31.641C4.95204 31.1974 4.93577 30.7458 4.93577 30.2982C4.93577 30.0296 4.93577 29.7651 4.93577 29.4844C4.95004 29.3181 4.97863 29.1534 5.02122 28.992C5.23034 28.3195 5.68118 27.7484 6.28669 27.3888C6.50257 27.253 6.7333 27.1424 6.97436 27.0592C7.40568 26.8964 7.19816 26.2454 7.67424 26.2454C8.78509 26.2128 10.6162 27.165 11.3364 27.9381C11.7912 28.4412 12.0497 29.0912 12.0648 29.7692L12.0078 31.7386C12.1066 31.7622 12.1969 31.8127 12.2688 31.8845C12.3406 31.9564 12.3911 32.0467 12.4147 32.1455C12.4508 32.4913 12.3783 32.8398 12.2072 33.1424C12.2072 33.1424 12.2072 33.1424 12.2072 33.175L11.3364 34.587C11.1478 34.9092 10.9427 35.2216 10.722 35.5228C10.4575 35.8768 10.2418 35.8158 10.4656 36.1535C12.0932 38.3834 16.8622 36.9674 16.8622 41.4148H0C0 36.9714 4.773 38.3834 6.39249 36.1535C6.57966 35.8768 6.53084 35.8972 6.32331 35.6734V35.6571ZM22.5629 9.99357C22.1194 9.58667 21.5619 9.26114 21.4846 8.4392H21.4399C21.3287 8.43679 21.2198 8.40747 21.1225 8.35375C20.967 8.25811 20.8459 8.11565 20.7766 7.94684C20.6179 7.58062 20.4918 6.61219 20.8946 6.31922L20.8173 6.27039V6.16459C20.8173 5.96928 20.8173 5.73327 20.7929 5.48913C20.7929 4.57766 20.7603 3.47902 20.032 3.25929L19.7186 3.16163L19.9384 2.91749C20.4771 2.23348 21.0898 1.6112 21.7654 1.062C22.3653 0.54669 23.0864 0.192429 23.8609 0.0325241C24.2252 -0.0261552 24.5979 -0.00525644 24.9533 0.0937837C25.3087 0.192824 25.6385 0.367656 25.9199 0.606261C26.1232 0.772338 26.3087 0.959169 26.4733 1.16372C26.7965 1.20156 27.1083 1.30653 27.3886 1.4719C27.6688 1.63727 27.9115 1.85939 28.1009 2.12402C28.3437 2.451 28.5256 2.81902 28.638 3.21046C28.7539 3.60644 28.8021 4.01915 28.7804 4.43117C28.7592 5.18019 28.4536 5.89304 27.9259 6.42501C28.0193 6.4253 28.1113 6.44761 28.1945 6.49012C28.3213 6.57804 28.4137 6.70718 28.4559 6.85556C28.4982 7.00393 28.4878 7.16238 28.4264 7.30393C28.3491 7.55214 28.2474 7.84104 28.1538 8.08112C28.0358 8.40664 27.869 8.46768 27.5434 8.43513C27.5434 9.24894 26.9453 9.55819 26.4489 10.0221C27.6696 12.2926 32.8251 10.7952 32.8251 15.3118H16.1419C16.1419 10.7952 21.1835 12.3536 22.5426 9.99357H22.5629ZM37.9602 44.8573C34.3085 48.1669 29.5563 50 24.628 50C19.6996 50 14.9474 48.1669 11.2957 44.8573H16.557C19.0316 46.2135 21.8081 46.9245 24.63 46.9245C27.4519 46.9245 30.2284 46.2135 32.703 44.8573H37.9602ZM6.10358 23.0105C7.45427 19.5199 9.76148 16.4808 12.7606 14.2417C12.728 14.578 12.7117 14.9402 12.7117 15.3281C12.7072 16.1486 12.9958 16.9437 13.5255 17.5702C13.2611 17.8021 13.0006 18.0462 12.7524 18.2945C11.3727 19.6729 10.2436 21.2812 9.4158 23.0471C8.8214 22.878 8.20678 22.7904 7.58879 22.7867C7.08347 22.7898 6.58098 22.8623 6.09545 23.0023L6.10358 23.0105Z" fill="#F8981D"/>
</svg>
