<svg width="66" height="41" viewBox="0 0 66 41" fill="none" xmlns="http://www.w3.org/2000/svg">
<path d="M3.01275 3.28136C4.75694 4.20076 28.9854 17.4053 29.8892 17.8809C30.793 18.3564 31.7127 18.5784 33.1398 18.5784C34.5669 18.5784 35.4865 18.3564 36.3903 17.8809C37.2941 17.4053 61.5226 4.20076 63.2668 3.28136C63.9169 2.94847 65.011 2.3461 65.2489 1.66447C65.6611 0.459734 65.2172 3.05176e-05 63.4571 3.05176e-05H33.1398H2.82247C1.06242 3.05176e-05 0.61844 0.475585 1.0307 1.66447C1.26855 2.36195 2.36264 2.94847 3.01275 3.28136Z" fill="white"/>
<path d="M64.6463 3.99474C63.3461 4.66052 51.6758 12.9669 43.9538 17.9602L56.9877 32.6231C57.3048 32.9402 57.4475 33.3206 57.2731 33.5108C57.0828 33.6852 56.6705 33.5901 56.3376 33.2889L40.7032 20.1002C38.3406 21.622 36.6757 22.6682 36.3903 22.8267C35.1694 23.4449 34.3131 23.5242 33.1397 23.5242C31.9664 23.5242 31.1101 23.4449 29.8892 22.8267C29.5879 22.6682 27.9389 21.622 25.5763 20.1002L9.94192 33.2889C9.6248 33.606 9.19668 33.7011 9.0064 33.5108C8.81612 33.3365 8.95883 32.9402 9.27596 32.6231L22.294 17.9602C14.572 12.9669 2.77486 4.66052 1.47464 3.99474C0.0792815 3.28141 0 4.12155 0 4.77148C0 5.42141 0 37.2677 0 37.2677C0 38.742 2.17232 40.5808 3.72624 40.5808H33.1397H62.5533C64.1072 40.5808 65.9624 38.7261 65.9624 37.2677C65.9624 37.2677 65.9624 5.40555 65.9624 4.77148C65.9624 4.1057 66.0575 3.28141 64.6463 3.99474Z" fill="white"/>
</svg>
