<svg width="28" height="41" viewBox="0 0 28 41" fill="none" xmlns="http://www.w3.org/2000/svg">
<path d="M6.80862 40.8515C10.567 40.8515 13.6172 37.8013 13.6172 34.0429V27.2344H6.80862C3.05026 27.2344 0 30.2846 0 34.0429C0 37.8013 3.05026 40.8515 6.80862 40.8515Z" fill="#0ACF83"/>
<path d="M0 20.4259C0 16.6676 3.05026 13.6174 6.80862 13.6174H13.6172V27.2345H6.80862C3.05026 27.2345 0 24.1843 0 20.4259Z" fill="#A259FF"/>
<path d="M0 6.80857C0 3.05024 3.05026 0 6.80862 0H13.6172V13.6171H6.80862C3.05026 13.6171 0 10.5669 0 6.80857Z" fill="#F24E1E"/>
<path d="M13.6172 0.000213623H20.4258C24.1842 0.000213623 27.2344 3.05045 27.2344 6.80878C27.2344 10.5671 24.1842 13.6174 20.4258 13.6174H13.6172V0.000213623Z" fill="#FF7262"/>
<path d="M27.2344 20.4259C27.2344 24.1843 24.1842 27.2345 20.4258 27.2345C16.6674 27.2345 13.6172 24.1843 13.6172 20.4259C13.6172 16.6676 16.6674 13.6174 20.4258 13.6174C24.1842 13.6174 27.2344 16.6676 27.2344 20.4259Z" fill="#1ABCFE"/>
</svg>
