<svg width="30" height="30" viewBox="0 0 30 30" fill="none" xmlns="http://www.w3.org/2000/svg">
<path d="M29.1875 13.5488L16.1984 0.559758C15.8387 0.201284 15.3516 0 14.8437 0C14.3359 0 13.8488 0.201284 13.4891 0.559758L10.7863 3.25585L14.2062 6.67577C16.0059 6.07148 17.7059 7.7914 17.0883 9.57773L20.3887 12.8781C22.6598 12.0945 24.4527 14.9367 22.7461 16.6434C20.9863 18.4031 18.0844 16.4508 19.0273 14.1664L15.9461 11.0851V19.1801C17.6262 20.0101 17.4269 21.9625 16.5504 22.8324C16.3388 23.0448 16.0873 23.2134 15.8104 23.3284C15.5335 23.4434 15.2366 23.5026 14.9367 23.5026C14.6369 23.5026 14.34 23.4434 14.0631 23.3284C13.7861 23.2134 13.5347 23.0448 13.323 22.8324C12.1543 21.6637 12.5859 19.718 14.0734 19.1137V10.9457C12.6922 10.3812 12.4398 8.90702 12.8383 7.95741L9.46484 4.57734L0.559757 13.4824C0.201284 13.8421 0 14.3293 0 14.8371C0 15.3449 0.201284 15.8321 0.559757 16.1918L13.5488 29.1809C13.9085 29.5393 14.3957 29.7406 14.9035 29.7406C15.4113 29.7406 15.8985 29.5393 16.2582 29.1809L29.1875 16.2516C29.546 15.8918 29.7472 15.4047 29.7472 14.8969C29.7472 14.389 29.546 13.9019 29.1875 13.5422V13.5488Z" fill="#E65133"/>
</svg>
