<svg width="52" height="52" viewBox="0 0 52 52" fill="none" xmlns="http://www.w3.org/2000/svg">
<g clip-path="url(#clip0_305_579)">
<path fill-rule="evenodd" clip-rule="evenodd" d="M42.9551 12.1055C42.9551 13.8266 41.5594 15.2215 39.8383 15.2215C38.1171 15.2215 36.7215 13.8266 36.7215 12.1055C36.7215 10.3845 38.1171 8.9896 39.8383 8.9896C41.5599 8.9896 42.9551 10.3845 42.9551 12.1055ZM25.9736 34.6215C21.1921 34.6215 17.3159 30.7465 17.3159 25.9663C17.3159 21.186 21.1921 17.311 25.9736 17.311C30.7552 17.311 34.6314 21.186 34.6314 25.9663C34.6314 30.7465 30.7552 34.6215 25.9736 34.6215ZM25.9736 12.6322C18.6073 12.6322 12.6358 18.602 12.6358 25.9663C12.6358 33.3305 18.6073 39.3003 25.9736 39.3003C33.34 39.3003 39.3115 33.3305 39.3115 25.9663C39.3115 18.602 33.34 12.6322 25.9736 12.6322ZM25.9736 4.67879C32.909 4.67879 33.7304 4.70517 36.469 4.83013C39.0015 4.94576 40.3768 5.36852 41.292 5.72434C42.5042 6.19539 43.3695 6.75812 44.2786 7.66694C45.1876 8.57536 45.7505 9.44036 46.2217 10.6527C46.5772 11.5676 47.0005 12.9426 47.1162 15.4743C47.2412 18.2125 47.2676 19.0337 47.2676 25.9671C47.2676 32.9005 47.2412 33.7216 47.1162 36.4595C47.0005 38.9912 46.5776 40.3662 46.2217 41.2811C45.7505 42.493 45.1876 43.358 44.2786 44.2668C43.3699 45.1756 42.5046 45.7383 41.292 46.2094C40.3768 46.5648 39.0015 46.988 36.469 47.1036C33.7304 47.2286 32.909 47.2549 25.9736 47.2549C19.0379 47.2549 18.2165 47.2286 15.4779 47.1036C12.9454 46.988 11.57 46.5652 10.6549 46.2094C9.44264 45.7383 8.57739 45.1756 7.66831 44.2668C6.75964 43.3584 6.19634 42.4934 5.72516 41.2811C5.36964 40.3662 4.94636 38.9912 4.83069 36.4595C4.70569 33.7212 4.67931 32.9001 4.67931 25.9671C4.67931 19.0337 4.70569 18.2125 4.83069 15.4743C4.94636 12.9426 5.36924 11.5676 5.72516 10.6527C6.19634 9.44076 6.75923 8.57576 7.66831 7.66694C8.57698 6.75812 9.44223 6.19539 10.6549 5.72434C11.57 5.36893 12.9454 4.94576 15.4779 4.83013C18.2169 4.70517 19.0383 4.67879 25.9736 4.67879ZM25.9736 0C18.9198 0 18.035 0.0300235 15.2648 0.156203C12.5002 0.282383 10.6119 0.721375 8.96009 1.36323C7.25192 2.02659 5.80349 2.91471 4.35951 4.35827C2.91554 5.80184 2.02716 7.24986 1.36362 8.95755C0.72158 10.6092 0.282463 12.4967 0.156248 15.2604C0.030032 18.0299 0 18.9144 0 25.9663C0 33.0181 0.030032 33.9026 0.156248 36.6721C0.282463 39.4358 0.72158 41.3233 1.36362 42.975C2.02716 44.6826 2.91554 46.1307 4.35951 47.5742C5.80349 49.0178 7.25192 49.9055 8.96009 50.5693C10.6123 51.2111 12.5002 51.6501 15.2648 51.7763C18.035 51.9025 18.9198 51.9325 25.9736 51.9325C33.0275 51.9325 33.9122 51.9025 36.6825 51.7763C39.4471 51.6501 41.335 51.2111 42.9872 50.5693C44.6954 49.9055 46.1438 49.0178 47.5878 47.5742C49.0317 46.1307 49.9197 44.6826 50.5837 42.975C51.2257 41.3233 51.6648 39.4358 51.791 36.6721C51.9172 33.9026 51.9473 33.0181 51.9473 25.9663C51.9473 18.9144 51.9172 18.0299 51.791 15.2604C51.6648 12.4967 51.2257 10.6092 50.5837 8.95755C49.9197 7.24986 49.0317 5.80184 47.5878 4.35827C46.1438 2.91471 44.6954 2.02699 42.9872 1.36323C41.335 0.721375 39.4471 0.282383 36.6825 0.156203C33.9122 0.0300235 33.0275 0 25.9736 0Z" fill="url(#paint0_radial_305_579)"/>
</g>
<defs>
<radialGradient id="paint0_radial_305_579" cx="0" cy="0" r="1" gradientUnits="userSpaceOnUse" gradientTransform="translate(7.75601 52.1128) scale(66.3756 66.3567)">
<stop stop-color="#FFB140"/>
<stop offset="0.2559" stop-color="#FF5445"/>
<stop offset="0.599" stop-color="#FC2B82"/>
<stop offset="1" stop-color="#8E40B7"/>
</radialGradient>
<clipPath id="clip0_305_579">
<rect width="51.9473" height="51.9325" fill="white"/>
</clipPath>
</defs>
</svg>
