<svg width="35" height="34" viewBox="0 0 35 34" fill="none" xmlns="http://www.w3.org/2000/svg">
<path fill-rule="evenodd" clip-rule="evenodd" d="M33.4541 25.1865L33.3008 25.5837C30.6881 30.6706 26.0595 33.7919 19.457 33.9296C16.3705 33.9932 13.4294 33.2013 11.5084 32.3399C7.36219 30.4772 3.87506 27.0227 1.97047 23.3317C-0.761479 18.0406 -1.25408 10.6803 4.42639 5.18274C4.51391 5.18274 3.73742 6.37479 3.82494 6.37479L3.66859 6.88348C-0.424848 19.699 12.1865 30.6815 24.4459 29.4255C27.3921 29.1236 31.1493 27.51 33.4541 25.1865Z" fill="#21609B"/>
<path fill-rule="evenodd" clip-rule="evenodd" d="M26.0353 19.8871C29.1196 19.9084 32.3411 18.4669 34.2487 16.443C32.5798 20.6797 27.7472 23.4031 21.2663 22.5368C15.8402 21.8108 10.671 16.3502 10.1384 10.8789C9.74905 6.89688 11.1371 4.52026 13.4239 1.63757C12.6291 3.14531 12.3321 4.30818 12.2581 5.0499C11.3892 13.6636 19.1388 19.8422 26.0353 19.8871Z" fill="#21609B"/>
<path fill-rule="evenodd" clip-rule="evenodd" d="M33.9388 9.18855C33.4592 10.2882 30.6985 12.3652 29.4795 12.6248C24.6522 13.653 21.5604 11.3639 19.9412 8.75916C19.7004 8.36978 19.2553 7.30753 19.1756 7.0371C18.5476 4.90173 18.8363 1.67194 20.7099 0C20.1455 1.58965 20.0632 3.43626 20.3602 4.63654C20.5401 5.36254 21.0884 6.6294 21.6371 7.42647C22.6358 8.87847 23.269 9.23119 24.5516 10.0021C25.1291 10.3492 25.7489 10.6275 26.0167 10.7041C27.2327 11.0617 29.8001 12.005 33.9388 9.18855Z" fill="#21609B"/>
</svg>
