<svg width="34" height="34" viewBox="0 0 34 34" fill="none" xmlns="http://www.w3.org/2000/svg">
<path d="M0 0V33.9331H33.9331V0H0ZM18.4663 26.4648C18.4663 29.7672 16.5272 31.2745 13.702 31.2745C11.1494 31.2745 9.67244 29.9565 8.915 28.3583L11.513 26.7905C12.0129 27.6767 12.4674 28.4265 13.5657 28.4265C14.6109 28.4265 15.2775 28.0175 15.2775 26.4193V15.5804H18.4663V26.4648ZM26.0103 31.2745C23.0487 31.2745 21.1324 29.8656 20.2008 28.0175L22.7988 26.5178C23.4805 27.6312 24.3742 28.4568 25.9421 28.4568C27.2601 28.4568 28.1084 27.7978 28.1084 26.8813C28.1084 25.7906 27.2449 25.4044 25.7831 24.7605L24.9878 24.4197C22.6852 23.4426 21.1627 22.208 21.1627 19.61C21.1627 17.2165 22.9881 15.3986 25.8285 15.3986C27.8584 15.3986 29.3127 16.1031 30.358 17.9512L27.8736 19.5418C27.3282 18.5647 26.7374 18.1784 25.8209 18.1784C24.8893 18.1784 24.2985 18.7692 24.2985 19.5418C24.2985 20.4962 24.8893 20.8825 26.2603 21.4808L27.0556 21.8217C29.7672 22.9806 31.2896 24.1697 31.2896 26.8359C31.2896 29.699 29.0325 31.2745 26.0103 31.2745Z" fill="#F2DF32"/>
</svg>
