<svg width="48" height="51" viewBox="0 0 48 51" fill="none" xmlns="http://www.w3.org/2000/svg">
<path d="M10.5542 13.1889H0V50.1181H10.5542V13.1889Z" fill="white"/>
<path d="M35.6175 13.1889C28.2533 13.1889 26.9868 15.8742 26.3852 18.4645V13.1889H15.8311V50.1181H26.3852V29.0157C26.3852 25.5945 28.2401 23.7401 31.6623 23.7401C35.0027 23.7401 36.9394 25.5549 36.9394 29.0157V50.1181H47.4936V31.6535C47.4936 21.1023 46.119 13.1889 35.6175 13.1889Z" fill="white"/>
<path d="M5.2771 10.5512C8.19156 10.5512 10.5542 8.18923 10.5542 5.2756C10.5542 2.36196 8.19156 0 5.2771 0C2.36264 0 0 2.36196 0 5.2756C0 8.18923 2.36264 10.5512 5.2771 10.5512Z" fill="white"/>
</svg>
