<svg width="50" height="78" viewBox="0 0 50 78" fill="none" xmlns="http://www.w3.org/2000/svg">
<path d="M32.1963 56.3108L46.1525 35.4615C46.1981 35.394 46.2363 35.3231 46.2661 35.2496C48.6761 31.5983 49.9485 27.4272 49.9485 23.1688C49.9485 10.3935 38.7616 0 25.011 0C11.2605 0 0.0726055 10.3935 0.0726055 23.1688C0.0726055 27.4281 1.34694 31.6009 3.75878 35.2548C3.7867 35.3188 3.81928 35.381 3.85838 35.4416L17.3138 56.3627C6.86875 57.7343 0 61.7246 0 66.5651C0 72.5627 10.9701 77.2595 24.9738 77.2595C38.9775 77.2595 49.9476 72.5618 49.9476 66.5651C49.9485 61.7021 42.7596 57.6227 32.1963 56.3108ZM6.26556 34.0864C4.04082 30.7966 2.86516 27.0216 2.86516 23.1688C2.86516 11.824 12.7992 2.59449 25.011 2.59449C37.2219 2.59449 47.156 11.824 47.156 23.1688C47.156 27.0233 45.9803 30.7983 43.7565 34.0864C43.71 34.1556 43.6718 34.2274 43.6411 34.3017L28.8964 56.3264C28.6749 56.642 28.6311 56.7138 28.3602 57.1272L24.6368 62.6898L6.39029 34.3199C6.35771 34.2395 6.31582 34.1608 6.26556 34.0864ZM24.9747 74.6651C11.9028 74.6651 2.79348 70.3954 2.79348 66.5651C2.79348 63.0885 9.65385 59.8125 18.8814 58.798L23.4146 65.8473C23.665 66.2356 24.1137 66.4751 24.6005 66.4786C24.6042 66.4786 24.6089 66.4786 24.6126 66.4786C25.0948 66.4786 25.5435 66.2468 25.7985 65.8663L30.5645 58.747C39.9391 59.6905 47.155 63.0495 47.155 66.5651C47.156 70.3963 38.0467 74.6651 24.9747 74.6651Z" fill="white"/>
<path d="M34.0421 25.1154C34.0421 20.4704 29.9742 16.6911 24.9746 16.6911C19.975 16.6911 15.9072 20.4704 15.9072 25.1154C15.9072 29.7604 19.975 33.5397 24.9746 33.5397C29.9742 33.5397 34.0421 29.7604 34.0421 25.1154ZM18.6998 25.1154C18.6998 21.9008 21.5147 19.2856 24.9746 19.2856C28.4346 19.2856 31.2495 21.9008 31.2495 25.1154C31.2495 28.33 28.4355 30.9452 24.9746 30.9452C21.5137 30.9452 18.6998 28.33 18.6998 25.1154Z" fill="white"/>
</svg>
