<svg width="11" height="24" viewBox="0 0 11 24" fill="none" xmlns="http://www.w3.org/2000/svg">
<path d="M10.562 9.518C9.29897 3.958 6.31997 2.131 5.99997 1.432C5.64797 0.939 5.26697 0 5.26697 0C5.26497 0.019 5.26297 0.031 5.26197 0.049V0.062H5.26097C5.25897 0.077 5.25797 0.087 5.25697 0.101V0.116H5.25497C5.25497 0.126 5.25297 0.134 5.25297 0.142V0.168H5.24997C5.24897 0.176 5.24897 0.186 5.24697 0.193V0.214H5.24497C5.24497 0.221 5.24497 0.229 5.24297 0.235V0.255H5.24097C5.24097 0.265 5.23997 0.277 5.23897 0.287V0.289C5.23597 0.306 5.23297 0.323 5.22997 0.339V0.347H5.22797C5.22697 0.351 5.22497 0.355 5.22497 0.359V0.376H5.22197V0.398H5.21697V0.416H5.21197V0.437H5.20797V0.456H5.20397V0.473H5.19797V0.487H5.19397V0.505H5.18997V0.519H5.18497V0.532H5.18197V0.547H5.17797C5.17697 0.548 5.17697 0.55 5.17697 0.551V0.561H5.17397C5.17297 0.563 5.17297 0.565 5.17297 0.567V0.573H5.17097C5.16997 0.576 5.16897 0.581 5.16897 0.583C5.16597 0.59 5.16197 0.597 5.15897 0.604V0.606C5.15697 0.608 5.15497 0.611 5.15397 0.613V0.621H5.14997V0.629H5.14497V0.637H5.14197V0.647H5.13597V0.661H5.13197V0.665H5.12797V0.673H5.12397V0.684H5.11997V0.692H5.11397V0.703H5.10997V0.711H5.10497V0.719H5.10197V0.729H5.09697V0.737H5.09297V0.743H5.08897V0.751H5.08297V0.76H5.07897V0.766H5.07397V0.774H5.06997V0.785H5.06497V0.789H5.06197V0.797H5.05597V0.801H5.05197V0.811H5.04797V0.815H5.04397V0.823H5.03897V0.829H5.03597L5.03397 0.833V0.837H5.03197C5.03097 0.839 5.02997 0.839 5.02997 0.841L5.02897 0.842C5.02797 0.845 5.02697 0.847 5.02497 0.849V0.852C5.01997 0.858 5.01597 0.864 5.01197 0.87C5.00997 0.872 5.00497 0.877 5.00297 0.881V0.883H5.00197C5.00097 0.884 4.99897 0.885 4.99897 0.886V0.889H4.99697L4.99397 0.892L4.99297 0.893C4.99297 0.894 4.99097 0.895 4.98997 0.897V0.901H4.98697L4.98497 0.903V0.905H4.98297C4.98297 0.907 4.98097 0.907 4.98097 0.908V0.911H4.97697C4.97697 0.912 4.97597 0.913 4.97497 0.914V0.92H4.97197V0.924H4.96797V0.93H4.96397V0.938H4.95897V0.93H4.95397V0.934H4.94997V0.94H4.94497V0.948H4.93997V0.952H4.93597V0.958H4.93197V0.962H4.92797V0.97H4.92197V0.974H4.91797V0.98H4.91297V0.984H4.90897V0.989H4.90397V0.999H4.90197V1.003H4.89597V1.008H4.89197V1.01H4.88797V1.014H4.88297V1.024H4.87897V1.028H4.87397V1.032H4.86997V1.038H4.86497V1.042H4.85997V1.046H4.85597V1.05H4.85197V1.06H4.84797V1.065H4.84197V1.069H4.83797V1.073H4.83297V1.079H4.82897V1.083H4.82397V1.09H4.81997V1.094H4.81397V1.1H4.81197V1.104H4.80797V1.108H4.80297V1.112H4.79897V1.118H4.79397V1.122H4.79097C4.78997 1.123 4.78997 1.124 4.78997 1.124V1.126H4.78797L4.78397 1.13C4.78397 1.13 4.78197 1.132 4.77997 1.133V1.139H4.77597V1.144H4.77197V1.148H4.76797V1.152H4.76497L4.76197 1.155V1.158H4.75997L4.75797 1.16V1.163H4.75597C4.75097 1.169 4.74897 1.173 4.74197 1.179C4.73997 1.181 4.73397 1.186 4.72997 1.189C4.71797 1.197 4.70297 1.21 4.69097 1.221C4.68297 1.226 4.67497 1.233 4.66897 1.238L4.66797 1.239C4.65197 1.252 4.63697 1.264 4.61897 1.278V1.279C4.59497 1.299 4.57197 1.318 4.54497 1.341L4.54297 1.34C4.48597 1.387 4.42597 1.44 4.35697 1.499V1.5H4.35597C4.18697 1.648 3.98597 1.838 3.76097 2.068L3.74597 2.083L3.74197 2.087C2.38197 3.494 0.238972 6.426 0.0129719 11.164C-0.00702805 11.556 -0.00302801 11.937 0.018972 12.308V12.317C0.127972 14.184 0.713972 15.778 1.44697 17.073C1.73897 17.589 2.05397 18.059 2.37297 18.479C3.47497 19.934 4.59997 20.797 4.88697 21.006C5.32797 22.029 5.28697 23.785 5.28697 23.785L5.93097 24C5.93097 24 5.79997 22.299 5.98397 21.478C6.04097 21.221 6.17597 21.002 6.33297 20.816C6.43897 20.741 6.75297 20.515 7.12997 20.171C7.14797 20.152 7.15797 20.135 7.17397 20.117C8.69497 18.699 11.536 15.207 10.562 9.518Z" fill="#05DA45"/>
</svg>
