<svg width="54" height="54" viewBox="0 0 54 54" fill="none" xmlns="http://www.w3.org/2000/svg">
<g clip-path="url(#clip0_305_598)">
<path d="M16.2618 37.8899H14.8236C14.7727 35.4622 14.6327 33.18 14.4037 31.0413H14.3909L12.2011 37.8899H11.1061L8.92944 31.0413H8.91693C8.75546 33.0946 8.65374 35.3775 8.61149 37.8899H7.30054C7.38503 34.8347 7.59736 31.9704 7.9367 29.2968H9.71929L11.794 35.6109H11.8068L13.8942 29.2968H15.5998C15.9734 32.4285 16.194 35.293 16.2618 37.8899ZM22.4992 31.5499C21.9137 34.7277 21.141 37.0367 20.1822 38.478C19.4352 39.5874 18.6167 40.1427 17.7254 40.1427C17.4878 40.1427 17.1945 40.071 16.8471 39.9287V39.1625C17.017 39.1869 17.2162 39.2008 17.4452 39.2008C17.8616 39.2008 18.1962 39.0863 18.4513 38.8568C18.7565 38.5772 18.909 38.2629 18.909 37.9152C18.909 37.6767 18.7901 37.1892 18.5528 36.4511L16.9744 31.5497H18.3874L19.5202 35.2154C19.7748 36.0478 19.8809 36.629 19.8384 36.96C20.4579 35.3055 20.8906 33.5015 21.1371 31.5494H22.4992V31.5499Z" fill="#5D87A1"/>
<path d="M41.6439 37.8899H37.5584V29.2968H38.9327V36.8321H41.6439V37.8899ZM36.489 38.0975L34.9093 37.3179C35.0493 37.2029 35.1833 37.0784 35.3039 36.9341C35.9754 36.1454 36.3103 34.9789 36.3103 33.434C36.3103 30.5911 35.1947 29.169 32.9627 29.169C31.8683 29.169 31.0145 29.5297 30.4039 30.2515C29.733 31.0408 29.3981 32.2031 29.3981 33.7397C29.3981 35.2502 29.6949 36.3583 30.2888 37.0611C30.8322 37.6978 31.6512 38.0166 32.7465 38.0166C33.155 38.0166 33.53 37.9666 33.8715 37.8657L35.9281 39.063L36.489 38.0975ZM31.3716 36.1704C31.0237 35.6107 30.8497 34.7119 30.8497 33.4726C30.8497 31.309 31.507 30.2259 32.8229 30.2259C33.5108 30.2259 34.0149 30.485 34.3373 31.0019C34.6847 31.5625 34.8595 32.4532 34.8595 33.6752C34.8595 35.8566 34.2017 36.9475 32.8866 36.9475C32.1984 36.9477 31.6943 36.6896 31.3716 36.1704ZM28.7992 35.5081C28.7992 36.2368 28.5318 36.8346 27.9976 37.3029C27.4629 37.7693 26.7459 38.003 25.8474 38.003C25.0069 38.003 24.1921 37.7345 23.4033 37.2004L23.7727 36.4625C24.4514 36.8024 25.0658 36.9714 25.6175 36.9714C26.1353 36.9714 26.5399 36.8566 26.8334 36.629C27.1266 36.4005 27.3014 36.0801 27.3014 35.6749C27.3014 35.1643 26.9454 34.728 26.2923 34.3625C25.6901 34.0318 24.4855 33.3403 24.4855 33.3403C23.8327 32.8645 23.5059 32.3537 23.5059 31.5121C23.5059 30.8157 23.7496 30.2534 24.2374 29.8257C24.7257 29.3963 25.3557 29.1823 26.1281 29.1823C26.9257 29.1823 27.6508 29.3961 28.3039 29.819L27.9726 30.5572C27.414 30.3199 26.8626 30.2012 26.3187 30.2012C25.8782 30.2012 25.538 30.3071 25.3015 30.5197C25.0631 30.7315 24.916 31.0024 24.916 31.3348C24.916 31.8429 25.2796 32.2848 25.9505 32.6575C26.5608 32.9887 27.7953 33.6922 27.7953 33.6922C28.4648 34.1671 28.7992 34.6732 28.7992 35.5081Z" fill="#F8981D"/>
<path d="M43.3692 26.4187C42.5382 26.3976 41.8948 26.4812 41.3548 26.7097C41.1989 26.7719 40.951 26.7719 40.9293 26.969C41.0135 27.0523 41.0233 27.1869 41.0964 27.3019C41.2209 27.5095 41.4379 27.7888 41.6361 27.9345C41.8537 28.1012 42.0721 28.2663 42.3012 28.4117C42.705 28.6615 43.1627 28.8069 43.5563 29.0559C43.7855 29.2007 44.0134 29.388 44.243 29.5439C44.3558 29.627 44.4281 29.7618 44.5746 29.8138V29.7821C44.5012 29.6887 44.4803 29.5536 44.4084 29.4497L44.0965 29.149C43.7953 28.7443 43.4209 28.3911 43.0171 28.1009C42.6847 27.8719 41.9576 27.5607 41.8229 27.1777L41.8017 27.1566C42.0302 27.1352 42.3012 27.0523 42.5182 26.9887C42.8715 26.8956 43.1936 26.9167 43.556 26.8236C43.7227 26.7819 43.8881 26.7297 44.0554 26.6783V26.5846C43.8675 26.3976 43.7336 26.1491 43.536 25.9723C43.0074 25.5157 42.4248 25.0691 41.8229 24.6953C41.5005 24.4871 41.0858 24.3532 40.7426 24.1761C40.6189 24.1136 40.4105 24.0827 40.3376 23.9788C40.1514 23.7504 40.0467 23.4496 39.9116 23.1792C39.6114 22.6086 39.3199 21.9755 39.0609 21.3722C38.8735 20.9675 38.7596 20.5634 38.5311 20.1891C37.4612 18.4243 36.2992 17.3554 34.5132 16.3062C34.1294 16.0878 33.6728 15.9947 33.185 15.8802L32.406 15.839C32.2398 15.7662 32.0734 15.5686 31.9283 15.4752C31.3358 15.1017 29.8102 14.2921 29.3745 15.361C29.0938 16.0366 29.7897 16.7009 30.0287 17.0435C30.2052 17.2814 30.4339 17.5521 30.5573 17.8223C30.6304 17.9988 30.651 18.1861 30.7241 18.3726C30.8903 18.8295 31.0456 19.3378 31.2641 19.7641C31.378 19.9815 31.5022 20.2099 31.6479 20.4067C31.7312 20.5217 31.8763 20.5726 31.908 20.7602C31.7632 20.967 31.7518 21.2791 31.6687 21.5387C31.2952 22.7118 31.4411 24.165 31.9705 25.0271C32.1362 25.2867 32.5314 25.8581 33.06 25.6391C33.528 25.4523 33.4243 24.8606 33.5589 24.3418C33.5897 24.2164 33.5694 24.1342 33.6317 24.0519V24.0722C33.7765 24.3626 33.9227 24.6425 34.0569 24.9337C34.379 25.4421 34.9398 25.9718 35.407 26.3239C35.6558 26.5118 35.8528 26.8331 36.1644 26.9478V26.9167H36.1438C36.0807 26.8236 35.9884 26.7819 35.9056 26.7097C35.7183 26.5226 35.511 26.2942 35.3656 26.0868C34.9304 25.5051 34.5452 24.8612 34.2034 24.1967C34.036 23.8743 33.8918 23.5219 33.757 23.2001C33.6942 23.0758 33.6942 22.8885 33.59 22.826C33.4338 23.0542 33.2062 23.2518 33.0922 23.5313C32.8946 23.9785 32.8741 24.5285 32.8007 25.1005L32.7598 25.1205C32.4291 25.0374 32.314 24.6953 32.1884 24.4049C31.8774 23.6673 31.8252 22.4833 32.095 21.6323C32.1673 21.4147 32.48 20.7293 32.3552 20.522C32.2926 20.3233 32.0848 20.2102 31.9708 20.0537C31.8369 19.8569 31.6901 19.6079 31.5967 19.3895C31.3477 18.8083 31.2224 18.1644 30.9542 17.5835C30.8288 17.3129 30.6112 17.0327 30.435 16.7834C30.2371 16.5033 30.0195 16.3059 29.8631 15.9738C29.8114 15.8596 29.7388 15.6728 29.8219 15.5486C29.8422 15.4652 29.8845 15.4341 29.9673 15.4133C30.1018 15.2996 30.4862 15.4441 30.6209 15.5066C31.0059 15.6623 31.3277 15.8076 31.649 16.0255C31.7943 16.1297 31.9502 16.3271 32.1367 16.379H32.3552C32.6867 16.4513 33.0605 16.399 33.3726 16.493C33.9227 16.6697 34.421 16.929 34.8679 17.2089C36.2277 18.0713 37.3491 19.2967 38.1062 20.7602C38.2304 20.9986 38.2832 21.2171 38.3966 21.4658C38.6154 21.975 38.8858 22.4941 39.1028 22.9925C39.321 23.4802 39.5289 23.9782 39.8404 24.3835C39.9958 24.6013 40.62 24.7156 40.8999 24.8298C41.1069 24.9229 41.4293 25.0057 41.6161 25.12C41.9693 25.3376 42.3212 25.5874 42.6533 25.8267C42.8186 25.9512 43.3384 26.2108 43.3692 26.4187ZM32.7787 17.3962C32.6354 17.3947 32.4925 17.4123 32.3538 17.4485V17.4693H32.3738C32.4575 17.6352 32.6028 17.7503 32.7065 17.8951C32.7901 18.0616 32.8627 18.2267 32.9446 18.3929L32.9647 18.3723C33.1111 18.2686 33.1839 18.1024 33.1839 17.8531C33.1208 17.7798 33.1111 17.7081 33.0586 17.6352C32.9975 17.5313 32.8627 17.4796 32.7787 17.3962Z" fill="#5D87A1"/>
<path d="M44.358 37.8885H44.5731V36.8357H44.2504L43.9872 37.5542L43.7012 36.8357H43.3905V37.8885H43.5937V37.0875H43.6051L43.9047 37.8885H44.0595L44.358 37.0875V37.8885ZM42.6251 37.8885H42.8528V37.0142H43.1507V36.8354H42.3147V37.0142H42.6246L42.6251 37.8885Z" fill="#F8981D"/>
</g>
<defs>
<clipPath id="clip0_305_598">
<rect width="53.125" height="53.125" fill="white"/>
</clipPath>
</defs>
</svg>
