<svg width="30" height="34" viewBox="0 0 30 34" fill="none" xmlns="http://www.w3.org/2000/svg">
<path d="M14.8285 33.4654C14.3836 33.4654 13.932 33.3459 13.5402 33.1201L9.44297 30.6963C8.83203 30.351 9.13086 30.2314 9.33008 30.165C10.1469 29.8795 10.3129 29.8197 11.1828 29.3217C11.2758 29.2686 11.3953 29.2885 11.4883 29.3482L14.6359 31.2143C14.7488 31.2807 14.9082 31.2807 15.0145 31.2143L27.2797 24.1354C27.3926 24.0689 27.4656 23.9361 27.4656 23.8033V9.64551C27.4656 9.50605 27.3926 9.37988 27.273 9.30684L15.0145 2.23457C14.9016 2.16816 14.7488 2.16816 14.6359 2.23457L2.38398 9.31348C2.26445 9.37988 2.19141 9.51269 2.19141 9.65215V23.8033C2.19141 23.9361 2.26445 24.0689 2.38398 24.1287L5.74414 26.0678C7.57031 26.9775 8.68594 25.9084 8.68594 24.826V10.8541C8.68594 10.6549 8.84531 10.5021 9.04453 10.5021H10.5984C10.791 10.5021 10.957 10.6549 10.957 10.8541V24.8326C10.957 27.2631 9.62891 28.6576 7.32461 28.6576C6.61406 28.6576 6.05625 28.6576 4.50234 27.8873L1.28828 26.0346C0.491406 25.5764 0 24.7197 0 23.7967V9.64551C0 8.7291 0.491406 7.86582 1.28828 7.40762L13.5402 0.328711C14.3172 -0.10957 15.3465 -0.10957 16.1168 0.328711L28.382 7.41426C29.1789 7.87246 29.6703 8.7291 29.6703 9.65215V23.8033C29.6703 24.7197 29.1789 25.5764 28.382 26.0412L16.1168 33.1201C15.725 33.3459 15.2801 33.4654 14.8285 33.4654ZM24.7297 19.5135C24.7297 16.8639 22.9367 16.16 19.1715 15.6619C15.3598 15.1572 14.9746 14.8982 14.9746 14.0084C14.9746 13.2713 15.3 12.2885 18.1223 12.2885C20.6391 12.2885 21.5687 12.833 21.9539 14.533C21.9871 14.6924 22.1332 14.8119 22.2992 14.8119H23.893C23.9926 14.8119 24.0855 14.7721 24.152 14.699C24.2184 14.626 24.2516 14.5264 24.2449 14.4268C23.9992 11.4982 22.0535 10.1369 18.1223 10.1369C14.6227 10.1369 12.5375 11.6111 12.5375 14.0881C12.5375 16.7709 14.616 17.5146 17.9695 17.8467C21.9871 18.2385 22.2992 18.8295 22.2992 19.6197C22.2992 20.9877 21.1969 21.5721 18.6137 21.5721C15.3664 21.5721 14.6559 20.7553 14.4168 19.1416C14.3902 18.9689 14.2441 18.8428 14.0648 18.8428H12.4777C12.2785 18.8428 12.1258 19.0021 12.1258 19.1947C12.1258 21.26 13.248 23.7236 18.6203 23.7236C22.4984 23.717 24.7297 22.183 24.7297 19.5135Z" fill="#83B300"/>
</svg>
