<svg width="75" height="64" viewBox="0 0 75 64" fill="none" xmlns="http://www.w3.org/2000/svg">
<path d="M45.4275 14.7719C48.5549 15.2851 51.4292 16.5715 53.6823 18.4665C55.9355 20.3615 57.465 22.7788 58.0752 25.4091M45.4275 4C51.9251 4.60709 57.9843 7.0543 62.61 10.9398C67.2357 14.8253 70.1531 19.9182 70.8831 25.3822M67.6811 46.8721V54.951C67.6848 55.701 67.5021 56.4434 67.1448 57.1306C66.7876 57.8178 66.2636 58.4346 65.6065 58.9416C64.9494 59.4487 64.1736 59.8347 63.3289 60.075C62.4841 60.3152 61.589 60.4045 60.7008 60.337C50.8479 59.4365 41.3834 56.6049 33.0679 52.0695C25.3313 47.9349 18.7721 42.4184 13.856 35.9117C8.44464 28.8863 5.07701 20.8876 4.02599 12.5636C3.94597 11.819 4.0512 11.0684 4.33498 10.3598C4.61876 9.65117 5.07486 9.00001 5.67425 8.44777C6.27365 7.89553 7.0032 7.4543 7.81645 7.15218C8.62971 6.85006 9.50885 6.69368 10.3979 6.69297H20.0038C21.5578 6.68011 23.0642 7.14291 24.2425 7.99511C25.4207 8.84731 26.1903 10.0308 26.4078 11.3249C26.8132 13.9103 27.5651 16.4489 28.6491 18.8921C29.0799 19.856 29.1732 20.9036 28.9178 21.9106C28.6624 22.9177 28.0691 23.8421 27.2082 24.5743L23.1417 27.9944C27.6999 34.7364 34.3373 40.3186 42.3536 44.1522L46.4201 40.7321C47.2906 40.0081 48.3898 39.5091 49.5872 39.2943C50.7846 39.0796 52.0302 39.158 53.1762 39.5203C56.0813 40.432 59.0997 41.0644 62.1738 41.4054C63.7292 41.5899 65.1497 42.2488 66.1651 43.2568C67.1806 44.2647 67.7201 45.5514 67.6811 46.8721Z" stroke="white" stroke-width="7.1148" stroke-linecap="round" stroke-linejoin="round"/>
</svg>
