<svg width="40" height="40" viewBox="0 0 40 40" fill="none" xmlns="http://www.w3.org/2000/svg">
<path d="M15.2831 16.3276H37.7849C38.8254 16.3276 39.6058 15.4821 39.6058 14.5066V4.75149C39.6058 3.71095 38.7604 2.93054 37.7849 2.93054H15.2831C14.2426 2.93054 13.4622 3.77598 13.4622 4.75149V14.5066C13.4622 15.4821 14.2426 16.3276 15.2831 16.3276Z" fill="#DCFFD2"/>
<path d="M39.3456 26.668C39.2155 25.6925 38.6302 24.9121 37.7848 24.3918C36.5491 23.6764 34.9883 23.9366 34.0128 24.9121L29.9807 29.0092C29.7856 27.5135 28.5499 26.3428 26.9891 26.3428H20.0955C16.8438 23.4813 12.0313 23.3513 8.58449 25.8876C8.12926 24.8471 7.15374 24.1317 5.9181 24.1317H0.715375C0.32517 24.1317 0 24.4569 0 24.8471V39.2846C0 39.6748 0.32517 40 0.715375 40H5.9181C7.08871 40 8.12925 39.2846 8.51946 38.2441L10.2103 39.3496C10.8607 39.8049 11.6411 40 12.4865 40H26.9891C28.1597 40 29.3304 39.4797 30.1108 38.5692L38.5001 29.2694C39.2155 28.554 39.4757 27.6435 39.3456 26.668ZM7.41388 37.1385C7.41388 37.9189 6.76354 38.5692 5.98313 38.5692H1.49578V25.5624H5.98313C6.76354 25.5624 7.41388 26.2128 7.41388 26.9932V37.1385ZM37.5246 28.3589L29.1353 37.6588C28.615 38.2441 27.8346 38.5692 27.0542 38.5692H12.5516C12.0313 38.5692 11.511 38.4392 11.0558 38.114L8.84463 36.6833V27.5785C11.7712 24.8471 16.3886 24.8471 19.3151 27.6435C19.4452 27.7736 19.6403 27.8386 19.8354 27.8386H26.9891C27.8346 27.8386 28.5499 28.554 28.5499 29.3994C28.5499 30.2449 27.8346 30.9603 26.9891 30.9603H18.6648C18.2746 30.9603 17.9494 31.2854 17.9494 31.6756C17.9494 32.0658 18.2746 32.391 18.6648 32.391H28.2898C28.4849 32.391 28.68 32.326 28.8101 32.1959L34.9883 25.9526C35.5086 25.3673 36.4191 25.3023 37.0694 25.6275C37.5246 25.8876 37.8498 26.3428 37.9148 26.8631C37.9799 27.3834 37.8498 27.9687 37.5246 28.3589Z" fill="#B66363"/>
<path d="M22.3719 17.8234V18.4087V20.2297C22.3719 22.0506 23.8677 23.5464 25.6887 23.5464H27.2495C29.0704 23.5464 30.5662 22.0506 30.5662 20.2297V18.4087V17.8234C30.5662 16.0675 31.1515 14.4416 32.1921 13.271C33.4928 11.8403 34.2081 9.95427 34.2081 7.93822C34.2081 5.72706 33.2977 3.64597 31.7368 2.15019C30.176 0.654405 28.225 -0.0609694 26.0789 0.00406463C22.1118 0.199167 18.8601 3.5159 18.73 7.54801C18.665 9.56407 19.3153 11.5151 20.616 13.0759C21.7866 14.5067 22.3719 16.1325 22.3719 17.8234ZM29.2005 20.2297C29.2005 21.2702 28.3551 22.1156 27.3145 22.1156H25.7537C24.7132 22.1156 23.8677 21.2702 23.8677 20.2297V19.1241H29.2655V20.2297H29.2005ZM20.2258 7.67808C20.3559 4.36135 23.0223 1.62992 26.274 1.49985C27.9649 1.43481 29.5907 2.02012 30.8914 3.25577C32.1921 4.49141 32.9074 6.24733 32.9074 8.00325C32.9074 9.6291 32.3221 11.1899 31.2816 12.3605C30.0459 13.7913 29.3306 15.6773 29.3306 17.6933H23.9327C23.9327 15.7423 23.1523 13.7913 21.8517 12.2305C20.681 10.9298 20.1608 9.30393 20.2258 7.67808Z" fill="#B66363"/>
<path d="M26.5337 10.4095C26.9239 10.4095 27.2491 10.0843 27.2491 9.69411V5.4669C27.2491 5.0767 26.9239 4.75153 26.5337 4.75153C26.1435 4.75153 25.8184 5.0767 25.8184 5.4669V9.69411C25.8184 10.0843 26.1435 10.4095 26.5337 10.4095Z" fill="#B66363"/>
<path d="M26.5337 13.271C26.9239 13.271 27.2491 12.9458 27.2491 12.5556C27.2491 12.1654 26.9239 11.8402 26.5337 11.8402C26.1435 11.8402 25.8184 12.1654 25.8184 12.5556C25.8184 12.9458 26.1435 13.271 26.5337 13.271Z" fill="#B66363"/>
</svg>
