<svg width="34" height="34" viewBox="0 0 34 34" fill="none" xmlns="http://www.w3.org/2000/svg">
<path d="M12.2898 15.8274H20.1118C22.2871 15.8274 24.023 14.0329 24.023 11.8504V4.38719C24.023 2.26331 22.2358 0.673948 20.1118 0.315066C17.4899 -0.117083 14.6409 -0.0951179 12.2898 0.322288C8.9793 0.908264 8.3788 2.13144 8.3788 4.39456V5.99189H16.2081V8.37146H5.44185C3.16413 8.37146 1.17181 9.74102 0.549352 12.3411C-0.168413 15.322 -0.197675 17.1823 0.549352 20.2951C1.10599 22.6096 2.43162 24.2647 4.70941 24.2647H7.39738V20.6907C7.39731 18.1053 9.63117 15.8274 12.2898 15.8274Z" fill="#347AB4"/>
<path d="M33.2101 13.5282C32.6461 11.2651 31.5769 9.55853 29.2991 9.55853H26.3623V13.0302C26.3623 15.7254 24.0771 17.9958 21.4697 17.9958H13.6476C11.5089 17.9958 9.73657 19.827 9.73657 21.9728V29.4288C9.73657 31.5526 11.5822 32.7977 13.6476 33.4058C16.1231 34.1307 18.5034 34.2627 21.4697 33.4058C23.4399 32.8343 25.3808 31.6846 25.3808 29.4288V27.8654H17.5661V25.4517H29.299C31.5769 25.4517 32.4191 23.8624 33.21 21.4821C34.0304 19.0285 33.9938 16.6701 33.2101 13.5282Z" fill="#FFCA1D"/>
<path d="M11.7991 4.60988C11.0188 4.60988 10.3862 3.97022 10.3862 3.18299C10.3932 2.38868 11.0188 1.74902 11.7991 1.74902C12.5723 1.74902 13.2119 2.39568 13.2119 3.18299C13.2119 3.97022 12.5793 4.60988 11.7991 4.60988Z" fill="white"/>
<path d="M21.2918 32.1949C20.5116 32.1949 19.8789 31.5552 19.8789 30.768C19.886 29.9737 20.5115 29.334 21.2918 29.334C22.065 29.334 22.7047 29.9807 22.7047 30.768C22.7047 31.5552 22.0721 32.1949 21.2918 32.1949Z" fill="white"/>
</svg>
