<svg width="39" height="34" viewBox="0 0 39 34" fill="none" xmlns="http://www.w3.org/2000/svg">
<path d="M31.6742 10.9964C31.2652 10.8601 30.8562 10.7313 30.4472 10.6101C30.5154 10.3299 30.576 10.0497 30.6366 9.76943C31.5682 5.25537 30.9547 1.62745 28.887 0.430767C26.8951 -0.712897 23.6458 0.476211 20.3587 3.33916C20.0331 3.6194 19.715 3.91478 19.412 4.21016C19.2075 4.01324 18.9954 3.81632 18.7834 3.62697C15.3372 0.567098 11.8835 -0.720471 9.81583 0.483785C7.83145 1.63502 7.24069 5.05087 8.07382 9.32257C8.15713 9.74671 8.24802 10.1633 8.35406 10.5874C7.86932 10.7238 7.39217 10.8752 6.9453 11.0343C2.90082 12.4355 0 14.6471 0 16.9344C0 19.2975 3.09017 21.6681 7.2937 23.1071C7.63453 23.2208 7.97536 23.3344 8.32376 23.4328C8.21015 23.8873 8.11169 24.3341 8.0208 24.7961C7.22554 28.9997 7.8466 32.3322 9.83097 33.4759C11.8759 34.6574 15.3145 33.4456 18.6622 30.5145C18.9273 30.2797 19.1924 30.0373 19.4575 29.7798C19.7907 30.1055 20.1391 30.416 20.4875 30.719C23.7292 33.5062 26.9329 34.6347 28.9097 33.491C30.9547 32.3095 31.6212 28.727 30.7578 24.3644C30.6896 24.0312 30.6139 23.6903 30.5305 23.3419C30.7729 23.2738 31.0077 23.198 31.2425 23.1223C35.6127 21.6757 38.7786 19.3353 38.7786 16.9344C38.7786 14.6395 35.7944 12.4127 31.6742 10.9964ZM21.4267 4.56614C24.2442 2.11218 26.8723 1.15029 28.069 1.83952C29.349 2.57419 29.8413 5.54318 29.0385 9.44376C28.9855 9.70127 28.9324 9.95121 28.8643 10.2011C27.1829 9.82245 25.4787 9.54979 23.767 9.39831C22.7824 7.98956 21.7069 6.6414 20.5405 5.37655C20.8359 5.09631 21.1237 4.83123 21.4267 4.56614ZM12.6636 20.8653C13.0499 21.5242 13.4437 22.1831 13.8603 22.8269C12.6788 22.6981 11.5048 22.5088 10.346 22.2589C10.6793 21.1682 11.0958 20.0397 11.5806 18.8885C11.929 19.555 12.2849 20.2139 12.6636 20.8653ZM10.3687 11.7538C11.4594 11.5114 12.6182 11.3145 13.8224 11.163C13.421 11.7917 13.0272 12.4355 12.6561 13.0868C12.2849 13.7306 11.9214 14.3895 11.5806 15.056C11.1034 13.9275 10.702 12.8217 10.3687 11.7538ZM12.444 16.9723C12.9439 15.927 13.4892 14.9046 14.0648 13.8972C14.6404 12.8899 15.2615 11.9129 15.9128 10.951C17.0489 10.8677 18.2078 10.8222 19.3893 10.8222C20.5708 10.8222 21.7372 10.8677 22.8657 10.951C23.5095 11.9053 24.123 12.8823 24.7062 13.8821C25.2894 14.8818 25.8347 15.9043 26.3497 16.942C25.8423 17.9872 25.297 19.0172 24.7138 20.0321C24.1381 21.0395 23.5247 22.0165 22.8809 22.986C21.7524 23.0693 20.5784 23.1071 19.3893 23.1071C18.2002 23.1071 17.0489 23.0693 15.9356 23.0011C15.2766 22.0392 14.6556 21.0546 14.0724 20.0473C13.4892 19.0399 12.9514 18.0175 12.444 16.9723ZM26.1225 20.8501C26.5088 20.1836 26.8723 19.5095 27.2283 18.8279C27.713 19.9261 28.1372 21.0395 28.5083 22.1831C27.3343 22.4482 26.1452 22.6527 24.9486 22.789C25.3575 22.1528 25.7438 21.5015 26.1225 20.8501ZM27.2132 15.056C26.8572 14.3895 26.4936 13.723 26.1149 13.0717C25.7438 12.4279 25.3576 11.7917 24.9561 11.163C26.1755 11.3145 27.3419 11.519 28.4326 11.769C28.0842 12.8899 27.6752 13.9805 27.2132 15.056ZM19.4044 6.53536C20.1997 7.39879 20.9495 8.30767 21.6463 9.24683C20.1467 9.17867 18.6395 9.17867 17.1398 9.24683C17.8821 8.2698 18.647 7.36092 19.4044 6.53536ZM10.6187 1.89254C11.8911 1.15029 14.7162 2.21064 17.6927 4.84637C17.8821 5.013 18.0714 5.19478 18.2683 5.37655C17.0944 6.6414 16.0113 7.98956 15.0191 9.39831C13.3074 9.54979 11.6109 9.81488 9.92944 10.186C9.83097 9.79973 9.74766 9.40589 9.66435 9.01204C8.9524 5.34625 9.42198 2.58177 10.6187 1.89254ZM8.76305 21.8574C8.44494 21.7666 8.13441 21.6681 7.82388 21.5621C6.21063 21.0546 4.37774 20.2518 3.0523 19.199C2.28733 18.6688 1.7723 17.8508 1.6284 16.9344C1.6284 15.5484 4.02176 13.776 7.47548 12.5718C7.90719 12.4203 8.34648 12.284 8.78577 12.1552C9.3008 13.7988 9.92186 15.412 10.6414 16.9723C9.91429 18.5552 9.28565 20.1912 8.76305 21.8574ZM17.5943 29.2799C16.3446 30.4236 14.8979 31.3324 13.3226 31.9535C12.4819 32.3549 11.5124 32.3928 10.649 32.052C9.4447 31.3552 8.94482 28.6816 9.62648 25.0839C9.70979 24.6598 9.80068 24.2357 9.90671 23.8191C11.6033 24.1826 13.315 24.4326 15.0494 24.5613C16.0492 25.9777 17.1474 27.3334 18.3214 28.6058C18.079 28.8406 17.8366 29.0678 17.5943 29.2799ZM19.4499 27.4394C18.6773 26.6063 17.9048 25.6823 17.155 24.6901C17.8821 24.7204 18.6319 24.7355 19.3893 24.7355C20.1694 24.7355 20.9344 24.7204 21.6918 24.6825C20.995 25.6444 20.2451 26.5609 19.4499 27.4394ZM29.349 29.7116C29.2809 30.6356 28.8264 31.4991 28.0993 32.0823C26.8951 32.7791 24.3275 31.8702 21.5554 29.492C21.2373 29.2193 20.9192 28.9239 20.5935 28.621C21.7524 27.341 22.8203 25.9852 23.7897 24.5613C25.5242 24.4174 27.251 24.1523 28.9552 23.7661C29.0309 24.0766 29.0991 24.3871 29.1597 24.6901C29.5308 26.3261 29.5914 28.0302 29.349 29.7116ZM30.7275 21.5696C30.5154 21.6378 30.3033 21.706 30.0837 21.7666C29.5535 20.1154 28.9022 18.5022 28.1523 16.9344C28.8794 15.3893 29.4929 13.7988 30.008 12.1704C30.4018 12.284 30.7805 12.4052 31.144 12.5263C34.6735 13.7382 37.1502 15.5408 37.1502 16.9192C37.1502 18.4037 34.5069 20.3199 30.7275 21.5696ZM19.3893 20.4335C21.3055 20.4335 22.8581 18.8809 22.8581 16.9647C22.8581 15.0485 21.3055 13.4958 19.3893 13.4958C17.4731 13.4958 15.9204 15.0485 15.9204 16.9647C15.9204 18.8809 17.4731 20.4335 19.3893 20.4335Z" fill="#68D7F3"/>
</svg>
