<svg width="38" height="34" viewBox="0 0 38 34" fill="none" xmlns="http://www.w3.org/2000/svg">
<path d="M18.5453 0L8.09194 1.14113L0 11.5874L18.5456 33.9992L37.0899 11.5874L28.9979 1.14113L18.5453 0Z" fill="#FDB300"/>
<path d="M0 11.5874L18.5456 34L7.51162 11.5874H0Z" fill="#EA6C00"/>
<path d="M29.579 11.5874L18.5464 34L37.0906 11.5874H29.579Z" fill="#EA6C00"/>
<path d="M8.09203 1.14113L7.51172 11.5874L18.5454 0L8.09203 1.14113Z" fill="#FDD231"/>
<path d="M29.5788 11.5874L28.9985 1.14113L18.5459 0L29.5788 11.5874Z" fill="#FDD231"/>
<path d="M29.5788 11.5874H37.0905L28.9985 1.14114L29.5788 11.5874Z" fill="#FDAD00"/>
<path d="M0 11.5874H7.51163L8.09194 1.14114L0 11.5874Z" fill="#FDAD00"/>
<path d="M18.5454 0L7.51172 11.5874H29.5783L18.5454 0Z" fill="#FEEEB7"/>
<path d="M7.51123 11.5874L18.5452 34H18.546L29.5786 11.5874H7.51123Z" fill="#FDAD00"/>
</svg>
