<svg width="59" height="56" viewBox="0 0 59 56" fill="none" xmlns="http://www.w3.org/2000/svg">
<path d="M28.3024 2.81417C28.4234 2.56972 28.6103 2.36396 28.842 2.22009C29.0737 2.07623 29.341 2 29.6138 2C29.8865 2 30.1539 2.07623 30.3856 2.22009C30.6173 2.36396 30.8042 2.56972 30.9252 2.81417L37.3028 15.7323C37.723 16.5826 38.3432 17.3182 39.1102 17.876C39.8772 18.4339 40.7681 18.7972 41.7064 18.935L55.9692 21.0222C56.2394 21.0613 56.4933 21.1753 56.7022 21.3513C56.911 21.5272 57.0664 21.7581 57.1509 22.0178C57.2353 22.2775 57.2454 22.5556 57.1801 22.8207C57.1147 23.0859 56.9764 23.3274 56.7809 23.518L46.4662 33.5621C45.786 34.225 45.277 35.0433 44.9832 35.9465C44.6893 36.8497 44.6194 37.8108 44.7793 38.7471L47.2144 52.938C47.2621 53.2081 47.2329 53.4862 47.1302 53.7405C47.0275 53.9949 46.8553 54.2152 46.6334 54.3764C46.4114 54.5376 46.1487 54.6332 45.875 54.6522C45.6014 54.6712 45.3279 54.613 45.0858 54.4841L32.336 47.7807C31.4959 47.3395 30.5613 47.1091 29.6124 47.1091C28.6636 47.1091 27.7289 47.3395 26.8888 47.7807L14.1418 54.4841C13.8998 54.6122 13.6266 54.6699 13.3534 54.6504C13.0803 54.631 12.818 54.5353 12.5965 54.3742C12.375 54.2132 12.2032 53.9932 12.1006 53.7393C11.9979 53.4853 11.9686 53.2077 12.0159 52.938L14.4483 38.7498C14.6089 37.8131 14.5393 36.8514 14.2454 35.9476C13.9516 35.0439 13.4422 34.2252 12.7614 33.5621L2.44671 23.5208C2.24957 23.3304 2.10986 23.0884 2.04352 22.8225C1.97717 22.5566 1.98685 22.2773 2.07145 22.0166C2.15605 21.7559 2.31216 21.5242 2.52202 21.3479C2.73187 21.1716 2.98702 21.0578 3.25841 21.0194L17.5184 18.935C18.4578 18.7983 19.3499 18.4354 20.118 17.8775C20.886 17.3196 21.507 16.5834 21.9275 15.7323L28.3024 2.81417Z" stroke="#6532BD" stroke-width="2.10623" stroke-linecap="round" stroke-linejoin="round"/>
</svg>
