<svg width="125" height="42" viewBox="0 0 125 42" fill="none" xmlns="http://www.w3.org/2000/svg">
<path d="M60.2459 0.105908C56.9737 0.415665 53.7401 2.02077 53.1242 3.65403C52.489 5.32484 53.3551 6.77975 55.7226 7.94368C57.6282 8.89173 59.6877 9.29535 62.5749 9.29535C65.1926 9.29535 67.3291 8.86357 69.2154 7.94368C71.0632 7.05196 71.9871 5.94435 71.9871 4.649C71.9871 3.31611 71.1017 2.26482 69.1961 1.35432C66.8286 0.218547 63.672 -0.222621 60.2459 0.105908Z" fill="#175A99"/>
<path d="M16.3604 2.706C13.3577 3.10024 11.0673 4.08583 9.97012 5.45626C9.64291 5.86927 9.56592 6.16964 9.56592 7.04259C9.56592 7.91554 9.64291 8.21591 9.97012 8.62892C11.0865 10.0275 13.5502 11.06 16.5721 11.4073C18.2852 11.6045 19.3438 11.5857 21.1339 11.3322C25.1952 10.7597 27.7167 9.10763 27.7167 7.04259C27.7167 6.03823 26.966 4.88368 26.0421 4.43313C25.8881 4.35804 25.6186 4.18908 25.4647 4.06705C24.9642 3.70098 22.9047 3.04392 21.5573 2.81864C19.8635 2.53704 17.9387 2.4995 16.3604 2.706Z" fill="#175A99"/>
<path d="M104.131 2.71539C101.129 3.09085 98.7804 4.12337 97.741 5.52197C97.1443 6.31044 97.1443 7.82168 97.741 8.58199C98.8766 10.0275 101.263 11.0507 104.343 11.4073C106.056 11.6045 107.115 11.5857 108.905 11.3322C112.042 10.8817 114.256 9.82101 115.218 8.27223C115.565 7.71842 115.565 6.36676 115.218 5.81295C114.256 4.26417 111.83 3.11901 108.674 2.72478C106.864 2.4995 105.825 2.4995 104.131 2.71539Z" fill="#175A99"/>
<path d="M57.8398 9.86791C52.1809 10.8441 48.851 12.1676 46.6568 14.2984C44.501 16.3634 43.8081 18.175 43.9043 21.3383L43.9813 23.2813H39.7083H35.416V24.877V26.4727H36.9558H38.4957V33.7473V41.0219H41.4791H44.4625V33.7473V26.4727H47.3497H50.2369L50.1021 26.7262C49.8904 27.0735 49.9674 28.3125 50.2176 29.2136C50.5256 30.3118 50.7758 31.2974 51.411 33.8881C51.5072 34.3293 51.6805 35.0145 51.7767 35.4087C52.0462 36.4131 52.2964 37.4268 52.5659 38.5345C52.8546 39.6608 53.0856 39.9518 54.0095 40.4024C54.9334 40.8529 55.7995 41.0219 57.1661 41.0219C59.0139 41.0219 60.3613 40.6089 61.2274 39.7829C61.5931 39.4356 61.6316 39.2854 61.5354 38.4875C61.4584 37.9994 61.3237 37.2767 61.2274 36.8918C61.1119 36.507 60.9387 35.8405 60.8232 35.4087C60.727 34.9863 60.5345 34.2917 60.4383 33.86C60.3228 33.4376 60.1495 32.7523 60.0533 32.3393C59.9571 31.9263 59.7838 31.2317 59.6683 30.7905C59.5528 30.3494 59.4181 29.7393 59.3604 29.4295L59.2449 28.8663L60.881 28.5565L62.4978 28.2468L64.0761 28.5565L65.6352 28.8663L65.5389 29.3826C65.4619 29.6642 65.3465 30.1898 65.2502 30.5559C65 31.4664 64.7305 32.5552 64.4803 33.6065C64.1531 34.977 63.6719 36.9106 63.3254 38.1872C63.0752 39.1258 63.3832 39.8016 64.3071 40.3085C65.9624 41.2378 69.0998 41.2847 70.9091 40.4024C71.91 39.9049 72.141 39.52 72.5644 37.5489C72.6799 37.0044 72.8531 36.2911 72.9494 35.9532C73.0456 35.6152 73.2188 34.9206 73.3343 34.4044C73.4498 33.8881 73.623 33.1372 73.7193 32.743C74.1235 31.1942 74.2775 30.5277 74.4892 29.6642C74.6047 29.1761 74.7972 28.4533 74.8934 28.0684C75.0474 27.5053 75.0281 27.2706 74.8164 26.9139L74.5277 26.4727H77.4919H80.456V33.7473V41.0219H83.4395H86.4229V33.7473V26.4727H87.9627H89.5025V24.877V23.2813H85.2103H80.918L81.0527 22.7838C81.1297 22.521 81.2067 21.7044 81.2067 20.9816C81.2452 17.9216 79.8786 15.2933 77.2609 13.3691C74.9704 11.6983 71.987 10.6658 67.0403 9.84914L64.846 9.49245L63.6911 10.065L62.5363 10.6376L61.3429 10.065C60.6692 9.74589 60.0918 9.48306 60.0533 9.49245C59.9955 9.50184 59.0139 9.67079 57.8398 9.86791ZM62.748 11.8766C62.9597 12.6463 62.9982 12.7684 63.7104 15.115C64.2108 16.7295 64.4033 17.3678 64.5765 17.9122C64.7305 18.3064 64.4996 18.5505 63.3832 19.2451C63.2484 19.3202 62.9982 19.4797 62.8057 19.6018L62.4593 19.8177L61.4969 19.1888C60.9579 18.8415 60.4767 18.5035 60.3805 18.4378C60.265 18.3346 60.342 17.9404 60.8232 16.4291C61.5354 14.2045 62.1128 12.3084 62.286 11.6138C62.363 11.3228 62.44 11.0882 62.4785 11.1069C62.517 11.1163 62.6325 11.4636 62.748 11.8766ZM52.7391 19.996V23.2813H52.2002H51.642L51.3918 22.0047C51.1993 20.9816 51.1993 20.4841 51.3918 19.5361C51.6612 18.1938 52.3156 16.7107 52.6621 16.7107C52.7006 16.7107 52.7391 18.1844 52.7391 19.996ZM73.2766 18.2126C73.623 18.9729 73.7385 22.2582 73.4691 22.9246C73.3343 23.225 73.2381 23.2813 72.8531 23.2813H72.3719L72.3912 20.0148C72.3912 17.0392 72.4297 16.7858 72.6799 17.1331C72.8339 17.3396 73.1034 17.8277 73.2766 18.2126Z" fill="#175A99"/>
<path d="M14.8209 11.8673C12.1262 12.1583 10.1437 12.8623 8.9118 13.9324L8.37286 14.4111L8.31511 20.0806C8.25737 26.3602 8.25737 26.3508 9.48923 27.1487C10.2014 27.6086 11.6065 28.1061 12.6651 28.2657C13.0886 28.3314 15.3213 28.4065 17.9968 28.4346C22.5008 28.4909 22.6355 28.5003 23.5787 28.7444C24.772 29.0447 25.542 29.4671 25.9269 30.0116C26.2541 30.4715 26.1964 32.0484 25.7922 33.8413C25.3687 35.7843 25.2147 36.5071 25.003 37.9338L24.7528 39.4075L25.3302 39.9519C25.9654 40.5808 26.9086 40.9469 28.3329 41.1346C29.969 41.3411 32.0092 40.9281 33.0294 40.1866C33.7608 39.6422 33.857 39.201 34.8387 32.0954C35.2621 29.0447 34.9927 26.5573 34.1843 25.9566C33.3181 25.3089 32.1247 24.924 30.2192 24.6612C29.2183 24.5298 27.0048 24.3421 25.6959 24.2858L25.1185 24.267L25.0608 22.9247C25.0223 21.8077 25.0608 21.5918 25.2917 21.5918C25.4457 21.5918 25.6382 21.6387 25.6959 21.6857C25.8692 21.8265 27.0433 22.0987 28.4484 22.3333C30.2384 22.6337 33.1641 22.8121 36.2245 22.8121C39.7661 22.8121 41.2097 22.69 42.0951 22.3146C43.6927 21.6294 43.8852 20.5781 42.5763 19.8459C41.5947 19.3015 41.152 19.2452 37.6874 19.2452C34.1073 19.2452 32.4712 19.1138 30.7004 18.6914C28.4099 18.1376 27.024 17.1895 25.2147 14.9367C24.2908 13.7916 24.0984 13.632 23.0205 13.097C20.7685 11.98 17.8428 11.5388 14.8209 11.8673Z" fill="#175A99"/>
<path d="M105.825 11.9611C103.784 12.2521 101.917 12.881 101.032 13.5756C100.82 13.7446 100.146 14.4955 99.5112 15.2652C97.8367 17.2927 96.5471 18.1281 94.2758 18.6913C92.582 19.1137 90.869 19.2451 87.3273 19.2451C83.805 19.2451 83.343 19.3108 82.3037 19.9303C81.8802 20.1932 81.7262 20.3997 81.6492 20.7845C81.5337 21.4416 81.6685 21.6856 82.3229 22.0705C83.3045 22.6337 84.1899 22.7463 87.8663 22.7932C92.7552 22.8495 96.1621 22.5586 98.6643 21.864C99.2033 21.7138 99.7037 21.5917 99.7807 21.5917C99.8385 21.5917 99.8962 22.2019 99.8962 22.9528V24.3139H98.9723C97.6635 24.3139 94.4298 24.6705 93.2557 24.9334C92.0046 25.2243 91.1962 25.6092 90.638 26.163C89.7333 27.0735 89.8103 30.4902 90.8497 36.9388C91.2924 39.7735 91.5234 40.1959 92.8322 40.684C93.6214 40.975 94.9303 41.2097 95.7387 41.2097C97.24 41.1909 98.8953 40.7028 99.6267 40.0457C100.108 39.6139 100.127 39.5576 100.031 38.45C99.9732 37.8305 99.8192 36.8731 99.7037 36.3286C98.8761 32.5646 98.6258 30.6592 98.9146 30.1711C99.261 29.5516 100.127 29.0634 101.378 28.7631C102.475 28.4909 102.533 28.4909 107.018 28.4346C109.501 28.4064 111.811 28.3407 112.119 28.2844C114.178 27.9464 115.622 27.3175 116.257 26.4915C116.623 26.0128 116.642 25.75 116.642 20.2682V14.5424L116.045 13.9793C115.718 13.6601 115.064 13.2189 114.582 12.9937C113.1 12.2803 110.155 11.7265 108 11.7452C107.615 11.7452 106.633 11.8391 105.825 11.9611Z" fill="#175A99"/>
<path d="M2.48298 14.8897C1.48209 15.0399 0.654428 15.3966 0.26947 15.8378C0.0577436 16.0818 0 17.5368 0 23.7225C0 31.2505 0 31.2975 0.404205 31.7105C0.63518 31.9357 0.943146 32.1422 1.07788 32.1704C1.30886 32.2079 1.34735 32.9776 1.34735 36.6196V41.0219H3.46462H5.58188V36.798V32.574L11.6065 32.5928L17.6118 32.621L17.6695 36.8261L17.708 41.0313L19.7868 41.0032L21.8463 40.975L21.9041 36.7792C21.9426 33.4188 22.0003 32.574 22.1928 32.574C22.6355 32.574 24.0213 32.0765 24.2716 31.8325C24.6565 31.4195 24.7913 30.8938 24.5988 30.462C24.3871 29.9646 23.3092 29.4483 22.1928 29.2981C21.7886 29.2418 19.6328 29.1949 17.3038 29.1949C13.6082 29.1949 13.0116 29.1761 11.9337 28.9977C9.68168 28.6411 8.14185 27.9277 7.37194 26.8952C7.06397 26.4728 7.02547 25.9377 6.92923 21.1694C6.85224 16.8891 6.77525 15.866 6.56352 15.6782C5.77436 15.0024 4.02281 14.6551 2.48298 14.8897Z" fill="#175A99"/>
<path d="M120.627 14.8804C119.645 15.0024 118.913 15.284 118.413 15.7252C118.124 15.9786 118.086 16.5324 118.047 20.7939C118.028 23.4221 117.97 25.8345 117.913 26.1348C117.72 27.111 116.527 28.0779 114.891 28.5941C113.255 29.101 112.1 29.1949 107.75 29.1949C103.053 29.1949 102.264 29.2606 101.244 29.7581C100.32 30.2086 100.031 30.7343 100.359 31.3632C100.666 31.917 101.186 32.2173 102.322 32.4802L103.169 32.6679V36.8449V41.0219H105.19H107.211V36.798V32.574H113.274H119.337L119.375 36.7698L119.433 40.975L121.512 41.0032L123.571 41.0313V36.6853V32.3394L124.053 32.0859C124.322 31.9451 124.63 31.7198 124.726 31.5884C124.842 31.4289 124.919 28.4909 124.919 23.6756V16.0067L124.476 15.6407C123.725 14.993 122.186 14.6832 120.627 14.8804Z" fill="#175A99"/>
</svg>
