<svg width="32" height="44" viewBox="0 0 32 44" fill="none" xmlns="http://www.w3.org/2000/svg">
<path d="M15.678 42C20.6207 42 24.6275 37.9931 24.6275 33.0505C24.6275 28.1078 20.6207 24.101 15.678 24.101C10.7353 24.101 6.72852 28.1078 6.72852 33.0505C6.72852 37.9931 10.7353 42 15.678 42Z" stroke="#EA6C00" stroke-width="4" stroke-miterlimit="10" stroke-linecap="round"/>
<path d="M15.6575 28.9749V33.0505H21.081" stroke="#EA6C00" stroke-width="4" stroke-miterlimit="10" stroke-linecap="round"/>
<path d="M15.6781 15.678C19.4552 15.678 22.5171 12.6161 22.5171 8.83899C22.5171 5.06192 19.4552 2 15.6781 2C11.901 2 8.83911 5.06192 8.83911 8.83899C8.83911 12.6161 11.901 15.678 15.6781 15.678Z" stroke="#EA6C00" stroke-width="4" stroke-miterlimit="10" stroke-linecap="round"/>
<path d="M2 33.434V25.3015C2.00758 22.7516 3.02387 20.3083 4.82692 18.5053C6.62997 16.7022 9.07324 15.6859 11.6231 15.6783H19.7322C22.2821 15.6858 24.7254 16.7021 26.5285 18.5052C28.3315 20.3082 29.3478 22.7516 29.3553 25.3015V33.434" stroke="#EA6C00" stroke-width="4" stroke-miterlimit="10" stroke-linecap="round"/>
</svg>
